<svg width="155" height="35" viewBox="0 0 155 35" fill="none" xmlns="http://www.w3.org/2000/svg">
<path d="M8.848 27.392C7.24267 27.392 5.69333 27.196 4.2 26.804C2.72533 26.3933 1.52133 25.8707 0.588 25.236L2.408 21.148C3.28533 21.708 4.29333 22.1747 5.432 22.548C6.58933 22.9027 7.73733 23.08 8.876 23.08C9.64133 23.08 10.2573 23.0147 10.724 22.884C11.1907 22.7347 11.5267 22.548 11.732 22.324C11.956 22.0813 12.068 21.8013 12.068 21.484C12.068 21.036 11.8627 20.6813 11.452 20.42C11.0413 20.1587 10.5093 19.944 9.856 19.776C9.20267 19.608 8.47467 19.44 7.672 19.272C6.888 19.104 6.09467 18.8893 5.292 18.628C4.508 18.3667 3.78933 18.0307 3.136 17.62C2.48267 17.1907 1.95067 16.64 1.54 15.968C1.12933 15.2773 0.924 14.4093 0.924 13.364C0.924 12.188 1.24133 11.124 1.876 10.172C2.52933 9.22 3.5 8.45467 4.788 7.876C6.076 7.29733 7.68133 7.008 9.604 7.008C10.892 7.008 12.152 7.15733 13.384 7.456C14.6347 7.736 15.7453 8.156 16.716 8.716L15.008 12.832C14.0747 12.328 13.1507 11.9547 12.236 11.712C11.3213 11.4507 10.4347 11.32 9.576 11.32C8.81067 11.32 8.19467 11.404 7.728 11.572C7.26133 11.7213 6.92533 11.9267 6.72 12.188C6.51467 12.4493 6.412 12.748 6.412 13.084C6.412 13.5133 6.608 13.8587 7 14.12C7.41067 14.3627 7.94267 14.568 8.596 14.736C9.268 14.8853 9.996 15.044 10.78 15.212C11.5827 15.38 12.376 15.5947 13.16 15.856C13.9627 16.0987 14.6907 16.4347 15.344 16.864C15.9973 17.2747 16.52 17.8253 16.912 18.516C17.3227 19.188 17.528 20.0373 17.528 21.064C17.528 22.2027 17.2013 23.2573 16.548 24.228C15.9133 25.18 14.952 25.9453 13.664 26.524C12.3947 27.1027 10.7893 27.392 8.848 27.392Z" fill="#373334"/>
<path d="M81.96 27V7.4H91.984C94.56 7.4 96.4827 7.876 97.752 8.828C99.0213 9.76133 99.656 10.9933 99.656 12.524C99.656 13.532 99.3853 14.4187 98.844 15.184C98.3213 15.9307 97.5747 16.528 96.604 16.976C95.652 17.4053 94.5133 17.62 93.188 17.62L93.748 16.276C95.1293 16.276 96.3333 16.4907 97.36 16.92C98.3867 17.3307 99.18 17.9373 99.74 18.74C100.319 19.524 100.608 20.4853 100.608 21.624C100.608 23.3227 99.9173 24.648 98.536 25.6C97.1733 26.5333 95.176 27 92.544 27H81.96ZM87.448 22.996H92.096C93.048 22.996 93.7667 22.8373 94.252 22.52C94.756 22.184 95.008 21.68 95.008 21.008C95.008 20.336 94.756 19.8413 94.252 19.524C93.7667 19.188 93.048 19.02 92.096 19.02H87.056V15.184H91.256C92.1893 15.184 92.8893 15.0253 93.356 14.708C93.8227 14.3907 94.056 13.9147 94.056 13.28C94.056 12.6453 93.8227 12.1787 93.356 11.88C92.8893 11.5627 92.1893 11.404 91.256 11.404H87.448V22.996Z" fill="#373334"/>
<path d="M28.76 13H32.72V27H28.76V13ZM23.36 27H19.4V13H23.36V27ZM29.04 21.54H23.08V18.26H29.04V21.54ZM33.8333 27L40.0133 13H43.9133L50.1133 27H45.9933L41.1533 14.94H42.7133L37.8733 27H33.8333ZM37.2133 24.28L38.2333 21.36H45.0733L46.0933 24.28H37.2133ZM51.2359 27V13H57.6359C58.9159 13 60.0159 13.2067 60.9359 13.62C61.8693 14.0333 62.5893 14.6333 63.0959 15.42C63.6026 16.1933 63.8559 17.1133 63.8559 18.18C63.8559 19.2333 63.6026 20.1467 63.0959 20.92C62.5893 21.68 61.8693 22.2667 60.9359 22.68C60.0159 23.08 58.9159 23.28 57.6359 23.28H53.4359L55.1959 21.62V27H51.2359ZM59.8959 27L56.4159 21.9H60.6359L64.1359 27H59.8959ZM55.1959 22.04L53.4359 20.22H57.3959C58.2226 20.22 58.8359 20.04 59.2359 19.68C59.6493 19.32 59.8559 18.82 59.8559 18.18C59.8559 17.5267 59.6493 17.02 59.2359 16.66C58.8359 16.3 58.2226 16.12 57.3959 16.12H53.4359L55.1959 14.3V22.04ZM69.6806 18.42H76.1806V21.38H69.6806V18.42ZM69.9606 23.94H77.2806V27H66.0406V13H77.0206V16.06H69.9606V23.94Z" fill="#373334"/>
<path d="M103.4 27V13H107.36V27H103.4ZM113.157 27V16.14H108.857V13H121.397V16.14H117.117V27H113.157ZM126.513 18.42H133.013V21.38H126.513V18.42ZM126.793 23.94H134.113V27H122.873V13H133.853V16.06H126.793V23.94Z" fill="#373334"/>
<rect x="140" y="3" width="15" height="28" fill="url(#paint0_linear_1_11)"/>
<defs>
<linearGradient id="paint0_linear_1_11" x1="140" y1="3" x2="155" y2="31" gradientUnits="userSpaceOnUse">
<stop stop-color="#FF5F3F"/>
<stop offset="1" stop-color="#FDA600"/>
</linearGradient>
</defs>
</svg>
